<?xml version="1.0" encoding="utf-8"?>
<!-- Generator: Adobe Illustrator 24.0.2, SVG Export Plug-In . SVG Version: 6.00 Build 0)  -->
<svg version="1.1"
	 id="Layer_1" inkscape:export-filename="/Users/pau/git/mm3/resources/android/icon-foreground.png" inkscape:export-xdpi="96" inkscape:export-ydpi="96" inkscape:version="0.92.2 5c3e80d, 2017-08-06" sodipodi:docname="icon-foreground.svg" xmlns:cc="http://creativecommons.org/ns#" xmlns:dc="http://purl.org/dc/elements/1.1/" xmlns:inkscape="http://www.inkscape.org/namespaces/inkscape" xmlns:rdf="http://www.w3.org/1999/02/22-rdf-syntax-ns#" xmlns:sodipodi="http://sodipodi.sourceforge.net/DTD/sodipodi-0.dtd" xmlns:svg="http://www.w3.org/2000/svg"
	 xmlns="http://www.w3.org/2000/svg" xmlns:xlink="http://www.w3.org/1999/xlink" x="0px" y="0px" viewBox="0 0 1024 1024"
	 style="enable-background:new 0 0 1024 1024;" xml:space="preserve">
<style type="text/css">
	.st0{fill:#65AC1E;}
	.st1{fill:#FFFFFF;}
</style>
<sodipodi:namedview  bordercolor="#666666" borderopacity="1" gridtolerance="10" guidetolerance="10" id="namedview21" inkscape:current-layer="Layer_1" inkscape:cx="-652.75324" inkscape:cy="-1188.1419" inkscape:pageopacity="0" inkscape:pageshadow="2" inkscape:window-height="970" inkscape:window-maximized="0" inkscape:window-width="1306" inkscape:window-x="1894" inkscape:window-y="73" inkscape:zoom="0.11523438" objecttolerance="10" pagecolor="#ffffff" showgrid="false">
	</sodipodi:namedview>
<title  id="title6">MoodleApp_Icon_White_RGB</title>
<rect x="354.8" y="422.9" class="st0" width="283.5" height="141.7"/>
<g>
	<g>
		<path class="st1" d="M390.2,458.3v38.1h38.1v-38.1H390.2z M416.6,484.7h-14.6v-14.6h14.6V484.7z"/>
		<rect x="440" y="470.1" class="st1" width="14.6" height="14.6"/>
	</g>
	<path class="st1" d="M466.4,458.3c0,0,17.7,0,21.2,0c7.8,0,11.3,5.2,11.3,9.9c0,3.4-1.3,5.6-4.8,7.7c4.4,1.6,6.9,4.6,6.9,9.2
		c0,5.5-4,11.3-13.3,11.3c-5.2,0-21.3,0-21.3,0L466.4,458.3z M478,487.8c0,0,4.9,0,7.7,0c2.7,0,4-2,4-3.7c0,0.8,0.4-3.2-3.6-3.2
		c-2.1,0-8.1,0-8.1,0V487.8z M478,473.3c0,0,3.6,0,6.2,0c2.8,0,3.9-1.3,3.9-3.2c0-0.4-0.1-2.9-3.1-2.9c1.4,0-7,0-7,0V473.3z"/>
	<path class="st1" d="M513,458.3h12.3l14,38h-12.6l-1.8-5.7h-11.8l-1.6,5.7H499L513,458.3z M518.7,469.6l-3.2,12.7h6.9L518.7,469.6z
		"/>
	<path class="st1" d="M558.9,469.6h11.7c0-6.5-4.9-12.5-16.4-12.5c-12.6,0-16.6,7-16.6,12.1c0,8.2,10.1,10.4,10.4,10.5
		c1.5,0.5,7.8,2.2,9.3,2.7c1.4,0.5,2.6,1.6,2.6,3c0,2.2-2.6,3.3-4.9,3.3c-1.4,0-6.2-0.5-6.2-5.5h-12.1c0,6.7,4.6,14.2,17.5,14.2
		c14.3,0,17.3-8.5,17.3-13c0-3.7-2.1-7.8-6.9-9.7c-2.9-1.2-7.7-2.2-10.1-2.9c-1.2-0.4-5.3-1.2-5.3-3.7c0-3.2,5.2-2.8,4.5-2.8
		C556.1,465.4,558.9,466.7,558.9,469.6z"/>
	<polygon class="st1" points="573.6,458.3 602.8,458.3 602.8,468.4 585.3,468.4 585.3,475.1 600.9,475.1 600.9,484.7 585.2,484.7 
		585.2,496.4 573.6,496.4 	"/>
</g>
<g>
	<polygon class="st1" points="405.4,526.5 405.4,526.5 401.8,512.8 399.5,512.8 395.8,526.5 395.6,526.5 395.6,526.5 392.4,512.8 
		390.3,512.8 394.5,529.2 396.7,529.2 400.5,515.3 400.6,515.3 400.6,515.3 404.4,529.2 406.6,529.2 411,512.8 408.9,512.8 
		405.6,526.5 	"/>
	<path class="st1" d="M420.7,519.4c-0.4-0.7-1-1.2-1.7-1.7c-0.7-0.4-1.6-0.7-2.6-0.7c-0.8,0-1.6,0.2-2.2,0.5
		c-0.7,0.3-1.3,0.7-1.8,1.3c-0.5,0.5-0.9,1.2-1.2,1.9c-0.3,0.7-0.4,1.6-0.4,2.5c0,0.9,0.2,1.8,0.4,2.5c0.2,0.8,0.6,1.4,1.1,2
		c0.5,0.5,1.1,1,1.8,1.3c0.7,0.3,1.5,0.5,2.5,0.5c1.3,0,2.5-0.3,3.3-1c0.9-0.7,1.4-1.6,1.7-2.9h-1.8c-0.2,0.8-0.5,1.4-1.1,1.8
		c-0.5,0.4-1.2,0.6-2.1,0.6c-0.7,0-1.2-0.1-1.7-0.3c-0.5-0.2-0.9-0.5-1.2-0.9c-0.3-0.4-0.5-0.8-0.7-1.3c-0.1-0.5-0.2-1-0.2-1.5
		l0-0.1h9c0-0.7,0-1.4-0.2-2.2C421.4,520.8,421.1,520,420.7,519.4 M412.8,522.2L412.8,522.2c0-0.5,0.1-1,0.3-1.4
		c0.2-0.4,0.4-0.8,0.7-1.1c0.3-0.3,0.7-0.6,1.1-0.7c0.4-0.2,0.9-0.3,1.4-0.3c0.5,0,1,0.1,1.4,0.3c0.4,0.2,0.8,0.4,1.1,0.7
		c0.3,0.3,0.6,0.7,0.7,1.1c0.2,0.4,0.3,0.9,0.3,1.3l0,0.1H412.8z"/>
	<path class="st1" d="M435.6,527.9c-0.6,0-1.2-0.1-1.6-0.4c-0.5-0.3-0.8-0.6-1.1-1c-0.3-0.4-0.5-0.9-0.6-1.4
		c-0.1-0.5-0.2-1.1-0.2-1.6c0-0.6,0.1-1.2,0.2-1.8c0.1-0.6,0.3-1.1,0.6-1.5c0.3-0.4,0.7-0.8,1.2-1.1c0.5-0.3,1.1-0.4,1.8-0.4
		c0.8,0,1.5,0.2,2,0.6c0.5,0.4,0.8,1,1,1.7h1.9c-0.1-0.7-0.3-1.3-0.5-1.7c-0.3-0.5-0.7-0.9-1.1-1.3c-0.4-0.3-1-0.6-1.6-0.7
		c-0.6-0.2-1.2-0.2-1.9-0.2c-0.9,0-1.8,0.2-2.5,0.5c-0.7,0.3-1.3,0.8-1.8,1.3c-0.5,0.6-0.8,1.2-1,2c-0.2,0.8-0.3,1.6-0.3,2.5
		c0,0.9,0.1,1.7,0.4,2.4c0.2,0.7,0.6,1.4,1.1,1.9c0.5,0.5,1,0.9,1.7,1.2c0.7,0.3,1.5,0.4,2.4,0.4c1.5,0,2.7-0.4,3.6-1.2
		c0.9-0.8,1.4-1.9,1.6-3.3H439c-0.1,0.9-0.5,1.6-1,2.1C437.4,527.6,436.6,527.9,435.6,527.9"/>
	<path class="st1" d="M446.9,517.7c-0.7,0.5-1.4,1.2-1.8,2.1l0,0H445v-2.5h-1.7v11.9h1.8v-5.3c0-0.8,0.1-1.5,0.2-2.1
		c0.2-0.6,0.4-1.1,0.8-1.5c0.3-0.4,0.8-0.8,1.4-1c0.5-0.2,1.2-0.3,2-0.3v-2c0,0-0.1,0-0.1,0C448.3,517.1,447.5,517.3,446.9,517.7"/>
	<path class="st1" d="M459.5,519.4c-0.4-0.7-1-1.2-1.7-1.7c-0.7-0.4-1.6-0.7-2.6-0.7c-0.8,0-1.6,0.2-2.2,0.5
		c-0.7,0.3-1.3,0.7-1.8,1.3c-0.5,0.5-0.9,1.2-1.2,1.9c-0.3,0.7-0.4,1.6-0.4,2.5c0,0.9,0.2,1.8,0.4,2.5c0.2,0.8,0.6,1.4,1.1,2
		c0.5,0.5,1.1,1,1.8,1.3c0.7,0.3,1.5,0.5,2.5,0.5c1.3,0,2.5-0.3,3.3-1c0.9-0.7,1.4-1.6,1.7-2.9h-1.8c-0.2,0.8-0.5,1.4-1.1,1.8
		c-0.5,0.4-1.2,0.6-2.1,0.6c-0.7,0-1.2-0.1-1.7-0.3c-0.5-0.2-0.9-0.5-1.2-0.9c-0.3-0.4-0.5-0.8-0.7-1.3c-0.1-0.5-0.2-1-0.2-1.5
		l0-0.1h9c0-0.7,0-1.4-0.2-2.2C460.2,520.8,459.9,520,459.5,519.4 M451.6,522.2L451.6,522.2c0-0.5,0.1-1,0.3-1.4
		c0.2-0.4,0.4-0.8,0.7-1.1c0.3-0.3,0.7-0.6,1.1-0.7c0.4-0.2,0.9-0.3,1.4-0.3c0.5,0,1,0.1,1.4,0.3c0.4,0.2,0.8,0.4,1.1,0.7
		c0.3,0.3,0.6,0.7,0.7,1.1c0.2,0.4,0.3,0.9,0.3,1.3l0,0.1H451.6z"/>
	<path class="st1" d="M472.5,527.5c-0.1-0.2-0.1-0.6-0.1-1v-6.2c0-0.7-0.1-1.2-0.4-1.7c-0.3-0.4-0.6-0.8-1-1
		c-0.4-0.2-0.9-0.4-1.4-0.5c-1.2-0.2-2.4-0.2-3.5,0.1c-0.6,0.1-1.1,0.4-1.6,0.7c-0.5,0.3-0.8,0.7-1.1,1.2c-0.3,0.5-0.4,1.1-0.5,1.8
		h1.8c0.1-0.9,0.4-1.5,0.9-1.8c0.6-0.3,1.3-0.5,2.1-0.5c0.3,0,0.6,0,0.9,0.1c0.3,0,0.6,0.1,0.9,0.3c0.3,0.1,0.5,0.4,0.6,0.6
		c0.2,0.3,0.3,0.6,0.3,1.1c0,0.4-0.1,0.7-0.3,0.9c-0.2,0.2-0.5,0.4-0.9,0.5c-0.4,0.1-0.8,0.2-1.3,0.2c-0.5,0.1-1,0.1-1.5,0.2
		c-0.5,0.1-1,0.2-1.5,0.3c-0.5,0.1-0.9,0.3-1.3,0.6c-0.4,0.3-0.7,0.6-0.9,1c-0.2,0.4-0.3,1-0.3,1.6c0,0.6,0.1,1.1,0.3,1.5
		c0.2,0.4,0.5,0.8,0.8,1c0.4,0.3,0.8,0.5,1.2,0.6c0.5,0.1,1,0.2,1.5,0.2c0.8,0,1.6-0.1,2.3-0.4c0.7-0.3,1.3-0.7,1.9-1.4l0.1-0.1v0.2
		c0,0.6,0.1,1.1,0.4,1.4c0.3,0.3,0.7,0.4,1.2,0.4c0.6,0,1-0.1,1.4-0.3v-1.4c-0.2,0.1-0.4,0.1-0.5,0.1
		C472.8,527.9,472.6,527.7,472.5,527.5 M470.6,525.1c0,0.3-0.1,0.6-0.2,0.9c-0.1,0.3-0.4,0.6-0.7,0.9c-0.3,0.3-0.7,0.5-1.2,0.7
		c-0.5,0.2-1,0.3-1.7,0.3c-0.3,0-0.6,0-0.9-0.1c-0.3-0.1-0.5-0.2-0.8-0.3c-0.2-0.1-0.4-0.3-0.5-0.6c-0.1-0.2-0.2-0.5-0.2-0.9
		c0-0.5,0.1-0.9,0.3-1.2c0.2-0.3,0.5-0.5,0.9-0.7c0.4-0.2,0.8-0.3,1.2-0.3c0.4-0.1,0.9-0.1,1.3-0.2c0.4-0.1,0.9-0.1,1.3-0.2
		c0.4-0.1,0.7-0.2,0.9-0.4l0.1-0.1V525.1z"/>
	<path class="st1" d="M491.9,519.4c-0.4-0.7-1-1.2-1.7-1.7c-0.7-0.4-1.6-0.7-2.6-0.7c-0.8,0-1.6,0.2-2.2,0.5
		c-0.7,0.3-1.3,0.7-1.8,1.3c-0.5,0.5-0.9,1.2-1.2,1.9c-0.3,0.7-0.4,1.6-0.4,2.5c0,0.9,0.2,1.7,0.4,2.5c0.2,0.8,0.6,1.4,1.1,2
		c0.5,0.5,1.1,1,1.8,1.3c0.7,0.3,1.5,0.5,2.5,0.5c1.3,0,2.5-0.3,3.3-1c0.9-0.7,1.4-1.6,1.7-2.9h-1.8c-0.2,0.8-0.5,1.4-1.1,1.8
		c-0.5,0.4-1.2,0.6-2.1,0.6c-0.7,0-1.2-0.1-1.7-0.3c-0.5-0.2-0.9-0.5-1.2-0.9c-0.3-0.4-0.5-0.8-0.7-1.3c-0.1-0.5-0.2-1-0.2-1.5
		l0-0.1h9c0-0.7,0-1.5-0.2-2.2C492.6,520.8,492.3,520,491.9,519.4 M484,522.2L484,522.2c0-0.5,0.1-1,0.3-1.4
		c0.2-0.4,0.4-0.8,0.7-1.1c0.3-0.3,0.7-0.6,1.1-0.7c0.4-0.2,0.9-0.3,1.4-0.3c0.5,0,1,0.1,1.4,0.3c0.4,0.2,0.8,0.4,1.1,0.7
		c0.3,0.3,0.6,0.7,0.7,1.1c0.2,0.4,0.3,0.9,0.3,1.3l0,0.1H484z"/>
	<path class="st1" d="M506.8,527.9c-0.6,0-1.2-0.1-1.6-0.4c-0.5-0.2-0.8-0.6-1.1-1c-0.3-0.4-0.5-0.9-0.6-1.4
		c-0.1-0.5-0.2-1.1-0.2-1.6c0-0.6,0.1-1.2,0.2-1.8c0.1-0.6,0.3-1.1,0.6-1.5c0.3-0.4,0.7-0.8,1.2-1.1c0.5-0.3,1.1-0.4,1.8-0.4
		c0.8,0,1.5,0.2,2,0.6c0.5,0.4,0.8,1,1,1.7h1.9c-0.1-0.7-0.3-1.3-0.5-1.7c-0.3-0.5-0.7-0.9-1.1-1.3c-0.4-0.3-1-0.6-1.6-0.7
		c-0.6-0.2-1.2-0.2-1.9-0.2c-0.9,0-1.8,0.2-2.5,0.5c-0.7,0.3-1.3,0.8-1.8,1.3c-0.5,0.6-0.8,1.2-1,2c-0.2,0.8-0.3,1.6-0.3,2.5
		c0,0.9,0.1,1.7,0.4,2.4c0.2,0.7,0.6,1.4,1.1,1.9c0.5,0.5,1,0.9,1.7,1.2c0.7,0.3,1.5,0.4,2.4,0.4c1.5,0,2.7-0.4,3.6-1.2
		c0.9-0.8,1.4-1.9,1.6-3.3h-1.9c-0.1,0.9-0.5,1.6-1,2.1C508.6,527.6,507.8,527.9,506.8,527.9"/>
	<path class="st1" d="M523.4,518.3c-0.3-0.4-0.7-0.7-1.3-0.9c-0.5-0.2-1.2-0.3-1.9-0.3c-0.3,0-0.7,0-1.1,0.1
		c-0.4,0.1-0.7,0.2-1.1,0.4c-0.3,0.2-0.7,0.4-0.9,0.6c-0.3,0.2-0.5,0.6-0.7,0.9l0,0h-0.1v-6.3h-1.8v16.4h1.8v-6.7
		c0-0.5,0.1-1.1,0.2-1.5c0.1-0.5,0.4-0.9,0.7-1.2c0.3-0.3,0.7-0.6,1.1-0.8c0.4-0.2,1-0.3,1.6-0.3c0.8,0,1.4,0.2,1.8,0.7
		c0.4,0.4,0.7,1,0.7,1.8v8h1.8v-7.8c0-0.6-0.1-1.2-0.2-1.8C523.9,519.1,523.7,518.6,523.4,518.3"/>
	<path class="st1" d="M536.6,519.4c-0.4-0.7-1-1.2-1.7-1.7c-0.7-0.4-1.6-0.7-2.6-0.7c-0.8,0-1.6,0.2-2.2,0.5
		c-0.7,0.3-1.3,0.7-1.8,1.3c-0.5,0.5-0.9,1.2-1.2,1.9c-0.3,0.7-0.4,1.6-0.4,2.5c0,0.9,0.2,1.7,0.4,2.5c0.2,0.8,0.6,1.4,1.1,2
		c0.5,0.5,1.1,1,1.8,1.3c0.7,0.3,1.5,0.5,2.5,0.5c1.3,0,2.5-0.3,3.3-1c0.9-0.7,1.4-1.6,1.7-2.9h-1.8c-0.2,0.8-0.5,1.4-1.1,1.8
		c-0.5,0.4-1.2,0.6-2.1,0.6c-0.7,0-1.2-0.1-1.7-0.3c-0.5-0.2-0.9-0.5-1.2-0.9c-0.3-0.4-0.5-0.8-0.7-1.3c-0.1-0.5-0.2-1-0.2-1.5
		l0-0.1h9c0-0.7,0-1.4-0.2-2.2C537.3,520.8,537,520,536.6,519.4 M528.7,522.2L528.7,522.2c0-0.5,0.1-1,0.3-1.4
		c0.2-0.4,0.4-0.8,0.7-1.1c0.3-0.3,0.7-0.6,1.1-0.7c0.4-0.2,0.9-0.3,1.4-0.3c0.5,0,1,0.1,1.4,0.3c0.4,0.2,0.8,0.4,1.1,0.7
		c0.3,0.3,0.6,0.7,0.7,1.1c0.2,0.4,0.3,0.9,0.3,1.3l0,0.1H528.7z"/>
	<path class="st1" d="M555.7,517.9c-0.3-0.3-0.8-0.5-1.2-0.6c-0.5-0.1-1-0.2-1.6-0.2c-0.8,0-1.5,0.2-2.1,0.5
		c-0.6,0.4-1.2,0.9-1.6,1.5l-0.1,0.1l0-0.1c-0.2-0.7-0.7-1.2-1.2-1.5c-0.6-0.3-1.3-0.5-2-0.5c-1.7,0-3,0.7-3.9,2l0,0h-0.1v-1.8h-1.7
		v11.9h1.8v-7.4c0-0.2,0.1-0.5,0.2-0.9c0.1-0.4,0.3-0.7,0.6-1c0.3-0.3,0.6-0.6,1-0.9c0.4-0.2,0.9-0.4,1.5-0.4c0.5,0,0.8,0.1,1.1,0.2
		c0.3,0.1,0.5,0.3,0.7,0.6c0.2,0.2,0.3,0.5,0.4,0.9c0.1,0.3,0.1,0.7,0.1,1.1v7.8h1.8v-7.4c0-0.9,0.3-1.7,0.9-2.3
		c0.6-0.6,1.4-0.9,2.3-0.9c0.5,0,0.9,0.1,1.2,0.2c0.3,0.1,0.6,0.3,0.7,0.6c0.2,0.2,0.3,0.5,0.4,0.9c0.1,0.3,0.1,0.7,0.1,1.1v7.8h1.8
		v-8.7c0-0.6-0.1-1.1-0.3-1.6C556.3,518.5,556,518.1,555.7,517.9"/>
	<path class="st1" d="M561.8,515.1H560v-2.3h1.8V515.1z M561.8,517.3H560v11.9h1.8V517.3z"/>
	<path class="st1" d="M572.8,528.7c0.5-0.3,0.9-0.7,1.2-1.1c0.3-0.5,0.4-1.1,0.4-1.8c0-0.6-0.1-1-0.3-1.4c-0.2-0.4-0.5-0.7-0.9-0.9
		c-0.4-0.3-0.8-0.5-1.2-0.6c-0.5-0.2-1-0.3-1.4-0.4c-0.5-0.1-0.9-0.2-1.4-0.3c-0.5-0.1-0.9-0.2-1.3-0.4c-0.4-0.1-0.7-0.3-0.9-0.6
		c-0.3-0.2-0.4-0.5-0.4-0.9c0-0.3,0.1-0.6,0.2-0.8c0.2-0.2,0.4-0.4,0.6-0.5c0.3-0.1,0.5-0.2,0.8-0.2c0.6-0.1,1.3-0.1,1.9,0
		c0.3,0.1,0.6,0.2,0.9,0.3c0.3,0.2,0.5,0.4,0.7,0.6c0.2,0.3,0.3,0.6,0.3,0.9h1.8c-0.1-0.7-0.2-1.3-0.5-1.7c-0.3-0.5-0.6-0.9-1-1.1
		c-0.4-0.3-0.9-0.5-1.5-0.6c-0.6-0.1-1.2-0.2-1.9-0.2c-0.5,0-1,0.1-1.6,0.2c-0.5,0.1-1,0.3-1.4,0.6c-0.4,0.3-0.8,0.6-1,1
		c-0.3,0.4-0.4,0.9-0.4,1.5c0,0.8,0.2,1.3,0.6,1.8c0.4,0.4,0.9,0.8,1.4,1c0.6,0.2,1.2,0.4,1.9,0.6c0.7,0.1,1.3,0.3,1.9,0.4
		c0.6,0.2,1.1,0.4,1.5,0.6c0.4,0.3,0.6,0.7,0.6,1.2c0,0.4-0.1,0.7-0.3,1c-0.2,0.2-0.4,0.4-0.7,0.6c-0.3,0.1-0.6,0.2-1,0.3
		c-0.8,0.1-1.5,0.1-2.2,0c-0.4-0.1-0.7-0.2-1-0.4c-0.3-0.2-0.6-0.4-0.8-0.7c-0.2-0.3-0.3-0.7-0.3-1.1h-1.8c0,0.7,0.2,1.3,0.5,1.8
		c0.3,0.5,0.6,0.9,1.1,1.2s1,0.5,1.6,0.7c1.1,0.3,2.4,0.3,3.7,0C571.8,529.2,572.4,529,572.8,528.7"/>
	<path class="st1" d="M579.4,513.8h-1.8v3.6h-2v1.6h2v7.7c0,0.5,0.1,1,0.2,1.3c0.1,0.3,0.3,0.6,0.5,0.8c0.2,0.2,0.5,0.3,0.9,0.4
		c0.4,0.1,0.8,0.1,1.3,0.1h1.4v-1.6H581c-0.3,0-0.6,0-0.8,0c-0.2,0-0.4-0.1-0.5-0.2c-0.1-0.1-0.2-0.2-0.2-0.4c0-0.1-0.1-0.3-0.1-0.6
		V519h2.5v-1.6h-2.5V513.8z"/>
	<path class="st1" d="M478.2,513.8h-1.8v3.6h-2v1.6h2v7.7c0,0.5,0.1,1,0.2,1.3c0.1,0.3,0.3,0.6,0.5,0.8c0.2,0.2,0.5,0.3,0.9,0.4
		c0.4,0.1,0.8,0.1,1.3,0.1h1.4v-1.6h-0.8c-0.3,0-0.6,0-0.8,0c-0.2,0-0.4-0.1-0.5-0.2c-0.1-0.1-0.2-0.2-0.2-0.4
		c0-0.1-0.1-0.3-0.1-0.6V519h2.5v-1.6h-2.5V513.8z"/>
	<path class="st1" d="M586.5,520L586.5,520L586.5,520l-0.1-2.6h-1.7v11.9h1.8v-5.1c0-0.8,0.1-1.5,0.2-2.1c0.2-0.6,0.4-1.1,0.8-1.5
		c0.3-0.4,0.8-0.8,1.4-1c0.5-0.2,1.2-0.3,2-0.3v-2c-1,0-1.9,0.2-2.5,0.6C587.6,518.3,586.9,519,586.5,520"/>
	<path class="st1" d="M596.9,532.3c0.2-0.4,0.4-0.9,0.7-1.5l5.2-13.5h-1.9l-3.4,9.8h-0.1l0,0l-3.5-9.8h-2.1l4.7,11.9l0,0l-0.8,2
		c-0.2,0.4-0.4,0.7-0.7,0.8c-0.3,0.2-0.6,0.3-1,0.3c-0.2,0-0.4,0-0.6-0.1c-0.2-0.1-0.3-0.1-0.5-0.2v1.7c0.2,0.1,0.4,0.1,0.6,0.1
		c0.2,0,0.5,0,0.7,0c0.4,0,0.8-0.1,1.1-0.2c0.3-0.1,0.6-0.3,0.9-0.5C596.5,533,596.7,532.7,596.9,532.3"/>
</g>
<image style="overflow:visible;" width="5476" height="2092" xlink:href="7F51ED06.png"  transform="matrix(5.162524e-02 0 0 5.162524e-02 354.2406 565)">
</image>
</svg>
